# xmcd
#
# Track frame offsets:
#  150
#  21674
#  38756
#  54130
#  69937
#  86648
#  102556
#  117240
#  142881
#  157637
#  176487
#  203846
#
# Disc length: 2923 seconds
#
# Revision: 0
# Processed by: cddbd v1.5.1PL2 Copyright (c) Steve Scherf et al.
# Submitted via: Collectorz.com_Music_Collector 6.11
#
DISCID=950b690c
DTITLE=Various Artist - World Music Fom Greece
DYEAR=1900
DGENRE=Country
TTITLE0=Zorba
TTITLE1=Frangosiriane Gorona To Amaxi Medley
TTITLE2=Mia Matia Soy Mono Ftane
TTITLE3=Sanazito Stin Saloniki
TTITLE4=Den Safino
TTITLE5=Samiotisa Medley
TTITLE6=Ma Ese Me Kais
TTITLE7=Doxa Or Theor Medley
TTITLE8=Vale Ese Ta Vradia Astatos Medley
TTITLE9=Kapriole
TTITLE10=Mou Lipies
TTITLE11=O Aetos To Agaimia Medley
EXTD=
EXTT0=
EXTT1=
EXTT2=
EXTT3=
EXTT4=
EXTT5=
EXTT6=
EXTT7=
EXTT8=
EXTT9=
EXTT10=
EXTT11=
PLAYORDER=
